<svg xmlns="http://www.w3.org/2000/svg" viewBox="0 0 332.03 199.84"><defs><style>.cls-1{fill:#17469c;}</style></defs><g id="Layer_2" data-name="Layer 2"><g id="Capa_2" data-name="Capa 2"><path class="cls-1" d="M156.86,26.47a2.5,2.5,0,0,0-2.37-2.57c-3-.32-6-.4-9.12-.58v6.55c3.17-.19,6.2-.24,9.21-.59a2.53,2.53,0,0,0,2.28-2.81"/><path class="cls-1" d="M152.88,16.87a2.47,2.47,0,0,0,2.41-2.69,2.43,2.43,0,0,0-2.37-2.69c-2.46-.24-4.95-.29-7.49-.42v5.85c2.57,0,5,.13,7.45-.05"/><path class="cls-1" d="M146.52,90.68v17c3.64-.52,7.91,1.1,10.19-2.7a11,11,0,0,0,0-11.42c-2.2-3.73-6.42-2.66-10.15-2.86"/><path class="cls-1" d="M152.68,132.27l-4.07,11.07h8.2c-1.36-3.67-2.67-7.15-4.13-11.07"/><path class="cls-1" d="M256.59,76.23C280.87,51.36,306.47,25.06,330.86.08c-.54,0-.71-.07-.87-.07q-40,0-79.9,0A3.17,3.17,0,0,0,248,1c-4.12,4.65-9.55,10.86-13.62,15.55l-45.09,52c-1.14,1.31-2.32,2.59-3.48,3.88l-.43-.16V0h-2.22q-57,0-114,0A88.23,88.23,0,0,0,47.36,2.55C32.65,6.33,21.32,14.48,14.26,28c-4.86,9.3-5.87,19.28-4.38,29.5a42,42,0,0,0,13.3,25.35c4.71,4.35,10.33,7.25,16.29,9.53.71.27,1.39.62,2.2,1-4.12,1.41-8,2.56-11.76,4.05-10.11,4-18.46,10.18-23.8,19.81S-.61,137.3.23,148.14a51.36,51.36,0,0,0,10.36,27.68c6.77,8.94,15.25,15.66,26.39,18.34a166.33,166.33,0,0,0,17,3,200,200,0,0,0,21.39,2.18c16.14.42,32.29.38,48.44.43,17.93.06,35.87,0,53.81,0h7.76v-2.93c0-15.6,0-31.19,0-46.78a4.36,4.36,0,0,1,1.33-3.37q13.41-13.77,26.74-27.62c.29-.3.62-.56,1-.9.32.56.59,1,.82,1.41,13.59,26.24,26.35,51.53,39.91,77.8a2.28,2.28,0,0,0,2.37,1.47q36.34-.06,72.7,0c.52,0,1-.05,1.78-.09-25.49-41.28-50-81.4-75.44-122.55m-138,80.43c-.54,0-1,.11-1.48.11-9.63,0-19.26.06-28.88,0a42.08,42.08,0,0,1-14-2.27c-8.69-3.14-12.86-11.18-12.31-20S68.16,119,78.48,117.27a75.21,75.21,0,0,1,11.1-1c9-.13,18.07,0,27.1,0h1.93Zm-.1-97.28c0,5.81-.05,11.61,0,17.41,0,1.33-.38,1.7-1.63,1.68-9.12-.13-18.23,0-27.33-.36a33.34,33.34,0,0,1-9.53-2c-5.89-2.06-8.87-6.8-9.92-12.93A22.74,22.74,0,0,1,70.59,53c2-6.91,6.87-10.44,13.45-11.69a54.16,54.16,0,0,1,9.24-1c7.83-.14,15.66,0,23.48-.08,1.45,0,1.79.45,1.77,1.88-.07,5.75,0,11.49,0,17.24M133,4.63c.68,0,1.27-.11,1.87-.11,6.95,0,13.92-.12,20.86.06A22.18,22.18,0,0,1,163,6.08a6.69,6.69,0,0,1,4.55,6.69c-.08,3.2-1.89,5.19-4.71,6.41-.26.11-.5.25-.93.46,1.08.41,2,.7,2.89,1.11a7.64,7.64,0,0,1,2.27,12.56c-2.34,2.42-5.36,3.19-8.49,3.28-8.28.22-16.57.23-24.86.32a3.35,3.35,0,0,1-.7-.2ZM133,44.42a2.7,2.7,0,0,1,.18-.57h12.06v8.7c0,3.43,0,6.86,0,10.28,0,3.08,1.09,4.71,3.51,5.6,2.91,1.06,6.95.5,8.41-1.49a6.84,6.84,0,0,0,1.19-3.65c.12-5.9.1-11.82,0-17.73,0-1.48.46-1.92,1.9-1.87,3,.1,6,0,9,0,.73,0,1.51-.08,1.5,1,0,6.52.12,13.05-.2,19.55-.31,6.11-4.11,9.87-9.8,11.4a35.61,35.61,0,0,1-18.19-.13A12.15,12.15,0,0,1,133,63.81c-.24-6.46-.06-12.93-.06-19.39m32.63,67c-3.34,2.82-7.37,3.65-11.5,3.79-6.27.21-12.57.07-18.86.07a5.83,5.83,0,0,1-.88-.14V83.24c.16-.09.25-.2.35-.2,7.5.06,15-.31,22.5.33,8.18.69,12.86,6.22,13.27,14.41.26,5.19-.57,10-4.88,13.65M132.3,154c4.36-9.55,8.74-19.09,13-28.65a2.58,2.58,0,0,1,2.83-1.87c3.4.14,6.8,0,10.19.09a2.14,2.14,0,0,1,1.65.92q7.11,15.33,14.08,30.73a2.81,2.81,0,0,1,0,.63c-4,0-7.93,0-11.87,0-.33,0-.67-.43-1-.69-.13-.1-.15-.29-.2-.45-.54-1.32-.72-3.19-1.71-3.83s-2.88-.28-4.37-.3c-2.57,0-5.12,0-7.69,0-.88,0-1.42.15-1.73,1.09-.45,1.4-.72,3.32-1.74,4s-3,.26-4.56.28c-2.49,0-5,0-7.7,0,.3-.76.48-1.32.73-1.86m37.32,41.63c-2.85,0-5.69,0-8.53,0a2.25,2.25,0,0,1-2.26-1.23c-2.39-3.93-4.84-7.81-7.41-11.92-2,1.72-3.91,3.34-5.76,5.06-.28.26-.28.91-.29,1.38,0,1.77,0,3.54,0,5.31,0,.93-.21,1.42-1.3,1.4-3.28-.05-6.57,0-9.86,0-.77,0-1.27-.14-1.26-1.08q0-15.41.08-30.83a2.69,2.69,0,0,1,.19-.43c3.7,0,7.42,0,11.14.06.34,0,.94.81,1,1.26.1,2.82,0,5.64,0,8.46v2.08c1.71-1.61,3.14-2.94,4.55-4.3,2.32-2.22,4.62-4.48,7-6.68a2.62,2.62,0,0,1,1.52-.84c5.06-.07,10.12,0,15.38.3l-13.89,11.87,14.91,20.12Z"/></g></g></svg>